<?xml version="1.0" encoding="us-ascii" standalone="no"?><svg xmlns="http://www.w3.org/2000/svg" xmlns:xlink="http://www.w3.org/1999/xlink" contentStyleType="text/css" height="640px" preserveAspectRatio="none" style="width:1989px;height:640px;background:#FFFFFF;" version="1.1" viewBox="0 0 1989 640" width="1989px" zoomAndPan="magnify"><defs/><g><!--class GraphCanvas--><g id="elem_GraphCanvas"><rect codeLine="1" fill="#F1F1F1" height="113.9531" id="GraphCanvas" rx="2.5" ry="2.5" style="stroke:#181818;stroke-width:0.5;" width="372" x="7" y="271.64"/><ellipse cx="143.25" cy="287.64" fill="#ADD1B2" rx="11" ry="11" style="stroke:#181818;stroke-width:1.0;"/><path d="M145.7231,293.7831 Q145.1421,294.0819 144.5029,294.2313 Q143.8638,294.3807 143.1582,294.3807 Q140.6514,294.3807 139.3315,292.7289 Q138.0117,291.077 138.0117,287.9559 Q138.0117,284.8265 139.3315,283.1747 Q140.6514,281.5228 143.1582,281.5228 Q143.8638,281.5228 144.5112,281.6722 Q145.1587,281.8216 145.7231,282.1205 L145.7231,284.8431 Q145.0923,284.2621 144.4988,283.9923 Q143.9053,283.7225 143.2744,283.7225 Q141.9297,283.7225 141.2449,284.7892 Q140.5601,285.8558 140.5601,287.9559 Q140.5601,290.0477 141.2449,291.1144 Q141.9297,292.181 143.2744,292.181 Q143.9053,292.181 144.4988,291.9112 Q145.0923,291.6415 145.7231,291.0604 Z " fill="#000000"/><text fill="#000000" font-family="sans-serif" font-size="14" lengthAdjust="spacing" textLength="91" x="163.75" y="292.931">GraphCanvas</text><line style="stroke:#181818;stroke-width:0.5;" x1="8" x2="378" y1="303.64" y2="303.64"/><ellipse cx="18" cy="317.3841" fill="none" rx="3" ry="3" style="stroke:#038048;stroke-width:1.0;"/><text fill="#000000" font-family="sans-serif" font-size="14" lengthAdjust="spacing" textLength="243" x="27" y="321.1752">&#171;const&#187; VertexRadius : double = 10</text><ellipse cx="18" cy="333.8724" fill="none" rx="3" ry="3" style="stroke:#038048;stroke-width:1.0;"/><text fill="#000000" font-family="sans-serif" font-size="14" lengthAdjust="spacing" textLength="310" x="27" y="337.6634">&#171;event&#187; VertexClicked : Action&lt;BaseVertex&gt;?</text><ellipse cx="18" cy="350.3607" fill="none" rx="3" ry="3" style="stroke:#038048;stroke-width:1.0;"/><text fill="#000000" font-family="sans-serif" font-size="14" lengthAdjust="spacing" textLength="346" x="27" y="354.1517">&#171;event&#187; VertexRightClicked : Action&lt;BaseVertex&gt;?</text><line style="stroke:#181818;stroke-width:0.5;" x1="8" x2="378" y1="361.1048" y2="361.1048"/><ellipse cx="18" cy="374.849" fill="#84BE84" rx="3" ry="3" style="stroke:#038048;stroke-width:1.0;"/><text fill="#000000" font-family="sans-serif" font-size="14" lengthAdjust="spacing" textLength="343" x="27" y="378.64">&#171;override&#187; Render(context:DrawingContext) : void</text></g><!--class List`1--><g id="elem_List`1"><rect codeLine="7" fill="#F1F1F1" height="48" id="List`1" rx="2.5" ry="2.5" style="stroke:#181818;stroke-width:0.5;" width="85" x="414.5" y="304.61"/><ellipse cx="429.5" cy="320.61" fill="#ADD1B2" rx="11" ry="11" style="stroke:#181818;stroke-width:1.0;"/><path d="M431.9731,326.7531 Q431.3921,327.0519 430.7529,327.2013 Q430.1138,327.3507 429.4082,327.3507 Q426.9014,327.3507 425.5815,325.6989 Q424.2617,324.047 424.2617,320.9259 Q424.2617,317.7965 425.5815,316.1447 Q426.9014,314.4928 429.4082,314.4928 Q430.1138,314.4928 430.7612,314.6422 Q431.4087,314.7916 431.9731,315.0905 L431.9731,317.8131 Q431.3423,317.2321 430.7488,316.9623 Q430.1553,316.6925 429.5244,316.6925 Q428.1797,316.6925 427.4949,317.7592 Q426.8101,318.8258 426.8101,320.9259 Q426.8101,323.0177 427.4949,324.0844 Q428.1797,325.151 429.5244,325.151 Q430.1553,325.151 430.7488,324.8812 Q431.3423,324.6115 431.9731,324.0304 Z " fill="#000000"/><text fill="#000000" font-family="sans-serif" font-size="14" lengthAdjust="spacing" textLength="41" x="443.5" y="325.901">List`1</text><rect fill="#FFFFFF" height="16.1328" style="stroke:#181818;stroke-width:1.0;stroke-dasharray:2.0,2.0;" width="10" x="492.5" y="301.61"/><text fill="#000000" font-family="sans-serif" font-size="12" font-style="italic" lengthAdjust="spacing" textLength="8" x="493.5" y="314.2116">T</text><line style="stroke:#181818;stroke-width:0.5;" x1="415.5" x2="498.5" y1="336.61" y2="336.61"/><line style="stroke:#181818;stroke-width:0.5;" x1="415.5" x2="498.5" y1="344.61" y2="344.61"/></g><!--class GraphLayout--><g id="elem_GraphLayout"><rect codeLine="9" fill="#F1F1F1" height="130.4414" id="GraphLayout" rx="2.5" ry="2.5" style="stroke:#181818;stroke-width:0.5;" width="214" x="86" y="503.3"/><ellipse cx="145.25" cy="519.3" fill="#ADD1B2" rx="11" ry="11" style="stroke:#181818;stroke-width:1.0;"/><path d="M147.7231,525.4431 Q147.1421,525.7419 146.5029,525.8913 Q145.8638,526.0407 145.1582,526.0407 Q142.6514,526.0407 141.3315,524.3889 Q140.0117,522.737 140.0117,519.6159 Q140.0117,516.4865 141.3315,514.8347 Q142.6514,513.1828 145.1582,513.1828 Q145.8638,513.1828 146.5112,513.3322 Q147.1587,513.4816 147.7231,513.7805 L147.7231,516.5031 Q147.0923,515.9221 146.4988,515.6523 Q145.9053,515.3825 145.2744,515.3825 Q143.9297,515.3825 143.2449,516.4492 Q142.5601,517.5158 142.5601,519.6159 Q142.5601,521.7077 143.2449,522.7744 Q143.9297,523.841 145.2744,523.841 Q145.9053,523.841 146.4988,523.5712 Q147.0923,523.3015 147.7231,522.7204 Z " fill="#000000"/><text fill="#000000" font-family="sans-serif" font-size="14" lengthAdjust="spacing" textLength="87" x="165.75" y="524.591">GraphLayout</text><line style="stroke:#181818;stroke-width:0.5;" x1="87" x2="299" y1="535.3" y2="535.3"/><ellipse cx="97" cy="549.0441" fill="none" rx="3" ry="3" style="stroke:#038048;stroke-width:1.0;"/><text fill="#000000" font-family="sans-serif" font-size="14" lengthAdjust="spacing" textLength="172" x="106" y="552.8352">MinX : double &#171;get&#187; &#171;set&#187;</text><ellipse cx="97" cy="565.5324" fill="none" rx="3" ry="3" style="stroke:#038048;stroke-width:1.0;"/><text fill="#000000" font-family="sans-serif" font-size="14" lengthAdjust="spacing" textLength="172" x="106" y="569.3234">MinY : double &#171;get&#187; &#171;set&#187;</text><ellipse cx="97" cy="582.0207" fill="none" rx="3" ry="3" style="stroke:#038048;stroke-width:1.0;"/><text fill="#000000" font-family="sans-serif" font-size="14" lengthAdjust="spacing" textLength="173" x="106" y="585.8117">Scale : double &#171;get&#187; &#171;set&#187;</text><ellipse cx="97" cy="598.509" fill="none" rx="3" ry="3" style="stroke:#038048;stroke-width:1.0;"/><text fill="#000000" font-family="sans-serif" font-size="14" lengthAdjust="spacing" textLength="188" x="106" y="602.3">OffsetX : double &#171;get&#187; &#171;set&#187;</text><ellipse cx="97" cy="614.9973" fill="none" rx="3" ry="3" style="stroke:#038048;stroke-width:1.0;"/><text fill="#000000" font-family="sans-serif" font-size="14" lengthAdjust="spacing" textLength="188" x="106" y="618.7883">OffsetY : double &#171;get&#187; &#171;set&#187;</text><line style="stroke:#181818;stroke-width:0.5;" x1="87" x2="299" y1="625.7414" y2="625.7414"/></g><!--class Control--><g id="elem_Control"><rect fill="#F1F1F1" height="48" id="Control" rx="2.5" ry="2.5" style="stroke:#181818;stroke-width:0.5;" width="84" x="151" y="56.46"/><ellipse cx="166" cy="72.46" fill="#ADD1B2" rx="11" ry="11" style="stroke:#181818;stroke-width:1.0;"/><path d="M168.4731,78.6031 Q167.8921,78.9019 167.2529,79.0513 Q166.6138,79.2007 165.9082,79.2007 Q163.4014,79.2007 162.0815,77.5489 Q160.7617,75.897 160.7617,72.7759 Q160.7617,69.6465 162.0815,67.9947 Q163.4014,66.3428 165.9082,66.3428 Q166.6138,66.3428 167.2612,66.4922 Q167.9087,66.6416 168.4731,66.9405 L168.4731,69.6631 Q167.8423,69.0821 167.2488,68.8123 Q166.6553,68.5425 166.0244,68.5425 Q164.6797,68.5425 163.9949,69.6092 Q163.3101,70.6758 163.3101,72.7759 Q163.3101,74.8677 163.9949,75.9344 Q164.6797,77.001 166.0244,77.001 Q166.6553,77.001 167.2488,76.7312 Q167.8423,76.4615 168.4731,75.8804 Z " fill="#000000"/><text fill="#000000" font-family="sans-serif" font-size="14" lengthAdjust="spacing" textLength="52" x="180" y="77.751">Control</text><line style="stroke:#181818;stroke-width:0.5;" x1="152" x2="234" y1="88.46" y2="88.46"/><line style="stroke:#181818;stroke-width:0.5;" x1="152" x2="234" y1="96.46" y2="96.46"/></g><!--class MainWindow--><g id="elem_MainWindow"><rect codeLine="1" fill="#F1F1F1" height="73.1094" id="MainWindow" rx="2.5" ry="2.5" style="stroke:#181818;stroke-width:0.5;" width="123" x="534.5" y="292.06"/><ellipse cx="551.3" cy="312.3705" fill="#ADD1B2" rx="11" ry="11" style="stroke:#181818;stroke-width:1.0;"/><path d="M553.7731,318.5136 Q553.1921,318.8124 552.5529,318.9619 Q551.9138,319.1113 551.2082,319.1113 Q548.7014,319.1113 547.3815,317.4594 Q546.0617,315.8076 546.0617,312.6865 Q546.0617,309.5571 547.3815,307.9052 Q548.7014,306.2534 551.2082,306.2534 Q551.9138,306.2534 552.5612,306.4028 Q553.2087,306.5522 553.7731,306.851 L553.7731,309.5737 Q553.1423,308.9926 552.5488,308.7228 Q551.9553,308.4531 551.3244,308.4531 Q549.9797,308.4531 549.2949,309.5197 Q548.6101,310.5864 548.6101,312.6865 Q548.6101,314.7783 549.2949,315.8449 Q549.9797,316.9116 551.3244,316.9116 Q551.9553,316.9116 552.5488,316.6418 Q553.1423,316.372 553.7731,315.791 Z " fill="#000000"/><text fill="#000000" font-family="sans-serif" font-size="12" font-style="italic" lengthAdjust="spacing" textLength="49" x="584.7" y="308.6616">&#171;partial&#187;</text><text fill="#000000" font-family="sans-serif" font-size="14" lengthAdjust="spacing" textLength="87" x="565.7" y="324.728">MainWindow</text><line style="stroke:#181818;stroke-width:0.5;" x1="535.5" x2="656.5" y1="332.6811" y2="332.6811"/><line style="stroke:#181818;stroke-width:0.5;" x1="535.5" x2="656.5" y1="340.6811" y2="340.6811"/><ellipse cx="545.5" cy="354.4252" fill="#84BE84" rx="3" ry="3" style="stroke:#038048;stroke-width:1.0;"/><text fill="#000000" font-family="sans-serif" font-size="14" lengthAdjust="spacing" textLength="97" x="554.5" y="358.2163">MainWindow()</text></g><!--class Window--><g id="elem_Window"><rect fill="#F1F1F1" height="48" id="Window" rx="2.5" ry="2.5" style="stroke:#181818;stroke-width:0.5;" width="86" x="553" y="56.46"/><ellipse cx="568" cy="72.46" fill="#ADD1B2" rx="11" ry="11" style="stroke:#181818;stroke-width:1.0;"/><path d="M570.4731,78.6031 Q569.8921,78.9019 569.2529,79.0513 Q568.6138,79.2007 567.9082,79.2007 Q565.4014,79.2007 564.0815,77.5489 Q562.7617,75.897 562.7617,72.7759 Q562.7617,69.6465 564.0815,67.9947 Q565.4014,66.3428 567.9082,66.3428 Q568.6138,66.3428 569.2612,66.4922 Q569.9087,66.6416 570.4731,66.9405 L570.4731,69.6631 Q569.8423,69.0821 569.2488,68.8123 Q568.6553,68.5425 568.0244,68.5425 Q566.6797,68.5425 565.9949,69.6092 Q565.3101,70.6758 565.3101,72.7759 Q565.3101,74.8677 565.9949,75.9344 Q566.6797,77.001 568.0244,77.001 Q568.6553,77.001 569.2488,76.7312 Q569.8423,76.4615 570.4731,75.8804 Z " fill="#000000"/><text fill="#000000" font-family="sans-serif" font-size="14" lengthAdjust="spacing" textLength="54" x="582" y="77.751">Window</text><line style="stroke:#181818;stroke-width:0.5;" x1="554" x2="638" y1="88.46" y2="88.46"/><line style="stroke:#181818;stroke-width:0.5;" x1="554" x2="638" y1="96.46" y2="96.46"/></g><!--class App--><g id="elem_App"><rect codeLine="1" fill="#F1F1F1" height="89.5977" id="App" rx="2.5" ry="2.5" style="stroke:#181818;stroke-width:0.5;" width="409" x="692.5" y="283.81"/><ellipse cx="870.25" cy="304.1205" fill="#ADD1B2" rx="11" ry="11" style="stroke:#181818;stroke-width:1.0;"/><path d="M872.7231,310.2636 Q872.1421,310.5624 871.5029,310.7119 Q870.8638,310.8613 870.1582,310.8613 Q867.6514,310.8613 866.3315,309.2094 Q865.0117,307.5576 865.0117,304.4365 Q865.0117,301.3071 866.3315,299.6552 Q867.6514,298.0034 870.1582,298.0034 Q870.8638,298.0034 871.5112,298.1528 Q872.1587,298.3022 872.7231,298.601 L872.7231,301.3237 Q872.0923,300.7426 871.4988,300.4728 Q870.9053,300.2031 870.2744,300.2031 Q868.9297,300.2031 868.2449,301.2697 Q867.5601,302.3364 867.5601,304.4365 Q867.5601,306.5283 868.2449,307.5949 Q868.9297,308.6616 870.2744,308.6616 Q870.9053,308.6616 871.4988,308.3918 Q872.0923,308.122 872.7231,307.541 Z " fill="#000000"/><text fill="#000000" font-family="sans-serif" font-size="12" font-style="italic" lengthAdjust="spacing" textLength="49" x="888.75" y="300.4116">&#171;partial&#187;</text><text fill="#000000" font-family="sans-serif" font-size="14" lengthAdjust="spacing" textLength="28" x="899.25" y="316.478">App</text><line style="stroke:#181818;stroke-width:0.5;" x1="693.5" x2="1100.5" y1="324.4311" y2="324.4311"/><line style="stroke:#181818;stroke-width:0.5;" x1="693.5" x2="1100.5" y1="332.4311" y2="332.4311"/><ellipse cx="703.5" cy="346.1752" fill="#84BE84" rx="3" ry="3" style="stroke:#038048;stroke-width:1.0;"/><text fill="#000000" font-family="sans-serif" font-size="14" lengthAdjust="spacing" textLength="184" x="712.5" y="349.9663">&#171;override&#187; Initialize() : void</text><ellipse cx="703.5" cy="362.6635" fill="#84BE84" rx="3" ry="3" style="stroke:#038048;stroke-width:1.0;"/><text fill="#000000" font-family="sans-serif" font-size="14" lengthAdjust="spacing" textLength="383" x="712.5" y="366.4545">&#171;override&#187; OnFrameworkInitializationCompleted() : void</text></g><!--class Application--><g id="elem_Application"><rect fill="#F1F1F1" height="48" id="Application" rx="2.5" ry="2.5" style="stroke:#181818;stroke-width:0.5;" width="110" x="842" y="56.46"/><ellipse cx="857" cy="72.46" fill="#ADD1B2" rx="11" ry="11" style="stroke:#181818;stroke-width:1.0;"/><path d="M859.4731,78.6031 Q858.8921,78.9019 858.2529,79.0513 Q857.6138,79.2007 856.9082,79.2007 Q854.4014,79.2007 853.0815,77.5489 Q851.7617,75.897 851.7617,72.7759 Q851.7617,69.6465 853.0815,67.9947 Q854.4014,66.3428 856.9082,66.3428 Q857.6138,66.3428 858.2612,66.4922 Q858.9087,66.6416 859.4731,66.9405 L859.4731,69.6631 Q858.8423,69.0821 858.2488,68.8123 Q857.6553,68.5425 857.0244,68.5425 Q855.6797,68.5425 854.9949,69.6092 Q854.3101,70.6758 854.3101,72.7759 Q854.3101,74.8677 854.9949,75.9344 Q855.6797,77.001 857.0244,77.001 Q857.6553,77.001 858.2488,76.7312 Q858.8423,76.4615 859.4731,75.8804 Z " fill="#000000"/><text fill="#000000" font-family="sans-serif" font-size="14" lengthAdjust="spacing" textLength="78" x="871" y="77.751">Application</text><line style="stroke:#181818;stroke-width:0.5;" x1="843" x2="951" y1="88.46" y2="88.46"/><line style="stroke:#181818;stroke-width:0.5;" x1="843" x2="951" y1="96.46" y2="96.46"/></g><!--class Program--><g id="elem_Program"><rect codeLine="1" fill="#F1F1F1" height="80.9766" id="Program" rx="2.5" ry="2.5" style="stroke:#181818;stroke-width:0.5;" width="245" x="987.5" y="39.97"/><ellipse cx="1076.25" cy="55.97" fill="#ADD1B2" rx="11" ry="11" style="stroke:#181818;stroke-width:1.0;"/><path d="M1078.7231,62.1131 Q1078.1421,62.4119 1077.5029,62.5613 Q1076.8638,62.7107 1076.1582,62.7107 Q1073.6514,62.7107 1072.3315,61.0589 Q1071.0117,59.407 1071.0117,56.2859 Q1071.0117,53.1565 1072.3315,51.5047 Q1073.6514,49.8528 1076.1582,49.8528 Q1076.8638,49.8528 1077.5112,50.0022 Q1078.1587,50.1516 1078.7231,50.4505 L1078.7231,53.1731 Q1078.0923,52.5921 1077.4988,52.3223 Q1076.9053,52.0525 1076.2744,52.0525 Q1074.9297,52.0525 1074.2449,53.1192 Q1073.5601,54.1858 1073.5601,56.2859 Q1073.5601,58.3777 1074.2449,59.4444 Q1074.9297,60.511 1076.2744,60.511 Q1076.9053,60.511 1077.4988,60.2412 Q1078.0923,59.9715 1078.7231,59.3904 Z " fill="#000000"/><text fill="#000000" font-family="sans-serif" font-size="14" lengthAdjust="spacing" textLength="59" x="1096.75" y="61.261">Program</text><line style="stroke:#181818;stroke-width:0.5;" x1="988.5" x2="1231.5" y1="71.97" y2="71.97"/><line style="stroke:#181818;stroke-width:0.5;" x1="988.5" x2="1231.5" y1="79.97" y2="79.97"/><ellipse cx="998.5" cy="93.7141" fill="#84BE84" rx="3" ry="3" style="stroke:#038048;stroke-width:1.0;"/><text fill="#000000" font-family="sans-serif" font-size="14" lengthAdjust="spacing" text-decoration="underline" textLength="168" x="1007.5" y="97.5052">Main(args:string[]) : void</text><ellipse cx="998.5" cy="110.2024" fill="#84BE84" rx="3" ry="3" style="stroke:#038048;stroke-width:1.0;"/><text fill="#000000" font-family="sans-serif" font-size="14" lengthAdjust="spacing" text-decoration="underline" textLength="219" x="1007.5" y="113.9934">BuildAvaloniaApp() : AppBuilder</text></g><!--class WallVertex--><g id="elem_WallVertex"><rect codeLine="1" fill="#F1F1F1" height="97.4648" id="WallVertex" rx="2.5" ry="2.5" style="stroke:#181818;stroke-width:0.5;" width="267" x="1109.5" y="519.79"/><ellipse cx="1202.25" cy="535.79" fill="#ADD1B2" rx="11" ry="11" style="stroke:#181818;stroke-width:1.0;"/><path d="M1204.7231,541.9331 Q1204.1421,542.2319 1203.5029,542.3813 Q1202.8638,542.5307 1202.1582,542.5307 Q1199.6514,542.5307 1198.3315,540.8789 Q1197.0117,539.227 1197.0117,536.1059 Q1197.0117,532.9765 1198.3315,531.3247 Q1199.6514,529.6728 1202.1582,529.6728 Q1202.8638,529.6728 1203.5112,529.8222 Q1204.1587,529.9716 1204.7231,530.2705 L1204.7231,532.9931 Q1204.0923,532.4121 1203.4988,532.1423 Q1202.9053,531.8725 1202.2744,531.8725 Q1200.9297,531.8725 1200.2449,532.9392 Q1199.5601,534.0058 1199.5601,536.1059 Q1199.5601,538.1977 1200.2449,539.2644 Q1200.9297,540.331 1202.2744,540.331 Q1202.9053,540.331 1203.4988,540.0612 Q1204.0923,539.7915 1204.7231,539.2104 Z " fill="#000000"/><text fill="#000000" font-family="sans-serif" font-size="14" lengthAdjust="spacing" textLength="73" x="1222.75" y="541.081">WallVertex</text><line style="stroke:#181818;stroke-width:0.5;" x1="1110.5" x2="1375.5" y1="551.79" y2="551.79"/><line style="stroke:#181818;stroke-width:0.5;" x1="1110.5" x2="1375.5" y1="559.79" y2="559.79"/><ellipse cx="1120.5" cy="573.5341" fill="#84BE84" rx="3" ry="3" style="stroke:#038048;stroke-width:1.0;"/><text fill="#000000" font-family="sans-serif" font-size="14" lengthAdjust="spacing" textLength="241" x="1129.5" y="577.3252">WallVertex(x:int, y:int, name:string)</text><ellipse cx="1120.5" cy="590.0224" fill="#84BE84" rx="3" ry="3" style="stroke:#038048;stroke-width:1.0;"/><text fill="#000000" font-family="sans-serif" font-size="14" lengthAdjust="spacing" textLength="200" x="1129.5" y="593.8134">&#171;override&#187; IsWalkable() : bool</text><ellipse cx="1120.5" cy="606.5107" fill="#84BE84" rx="3" ry="3" style="stroke:#038048;stroke-width:1.0;"/><text fill="#000000" font-family="sans-serif" font-size="14" lengthAdjust="spacing" textLength="238" x="1129.5" y="610.3017">&#171;override&#187; GetVertexType() : string</text></g><!--class BaseVertex--><g id="elem_BaseVertex"><rect codeLine="1" fill="#F1F1F1" height="229.3711" id="BaseVertex" rx="2.5" ry="2.5" style="stroke:#181818;stroke-width:0.5;" width="270" x="1412" y="213.93"/><ellipse cx="1504.75" cy="229.93" fill="#ADD1B2" rx="11" ry="11" style="stroke:#181818;stroke-width:1.0;"/><path d="M1507.2231,236.0731 Q1506.6421,236.3719 1506.0029,236.5213 Q1505.3638,236.6707 1504.6582,236.6707 Q1502.1514,236.6707 1500.8315,235.0189 Q1499.5117,233.367 1499.5117,230.2459 Q1499.5117,227.1165 1500.8315,225.4647 Q1502.1514,223.8128 1504.6582,223.8128 Q1505.3638,223.8128 1506.0112,223.9622 Q1506.6587,224.1116 1507.2231,224.4105 L1507.2231,227.1331 Q1506.5923,226.5521 1505.9988,226.2823 Q1505.4053,226.0125 1504.7744,226.0125 Q1503.4297,226.0125 1502.7449,227.0792 Q1502.0601,228.1458 1502.0601,230.2459 Q1502.0601,232.3377 1502.7449,233.4044 Q1503.4297,234.471 1504.7744,234.471 Q1505.4053,234.471 1505.9988,234.2012 Q1506.5923,233.9315 1507.2231,233.3504 Z " fill="#000000"/><text fill="#000000" font-family="sans-serif" font-size="14" lengthAdjust="spacing" textLength="76" x="1525.25" y="235.221">BaseVertex</text><line style="stroke:#181818;stroke-width:0.5;" x1="1413" x2="1681" y1="245.93" y2="245.93"/><ellipse cx="1423" cy="259.6741" fill="none" rx="3" ry="3" style="stroke:#038048;stroke-width:1.0;"/><text fill="#000000" font-family="sans-serif" font-size="14" lengthAdjust="spacing" textLength="117" x="1432" y="263.4652">x : int &#171;get&#187; &#171;set&#187;</text><ellipse cx="1423" cy="276.1624" fill="none" rx="3" ry="3" style="stroke:#038048;stroke-width:1.0;"/><text fill="#000000" font-family="sans-serif" font-size="14" lengthAdjust="spacing" textLength="115" x="1432" y="279.9534">y : int &#171;get&#187; &#171;set&#187;</text><ellipse cx="1423" cy="292.6507" fill="none" rx="3" ry="3" style="stroke:#038048;stroke-width:1.0;"/><text fill="#000000" font-family="sans-serif" font-size="14" lengthAdjust="spacing" textLength="229" x="1432" y="296.4417">IsVisited : bool &#171;get&#187; &#171;set&#187; = false</text><ellipse cx="1423" cy="309.139" fill="none" rx="3" ry="3" style="stroke:#038048;stroke-width:1.0;"/><text fill="#000000" font-family="sans-serif" font-size="14" lengthAdjust="spacing" textLength="213" x="1432" y="312.93">IsPath : bool &#171;get&#187; &#171;set&#187; = false</text><ellipse cx="1423" cy="325.6273" fill="none" rx="3" ry="3" style="stroke:#038048;stroke-width:1.0;"/><text fill="#000000" font-family="sans-serif" font-size="14" lengthAdjust="spacing" textLength="228" x="1432" y="329.4183">IsTarget : bool &#171;get&#187; &#171;set&#187; = false</text><ellipse cx="1423" cy="342.1155" fill="none" rx="3" ry="3" style="stroke:#038048;stroke-width:1.0;"/><text fill="#000000" font-family="sans-serif" font-size="14" lengthAdjust="spacing" textLength="198" x="1432" y="345.9066">Name : string &#171;get&#187; &#171;set&#187; = ""</text><line style="stroke:#181818;stroke-width:0.5;" x1="1413" x2="1681" y1="352.8597" y2="352.8597"/><ellipse cx="1423" cy="366.6038" fill="#84BE84" rx="3" ry="3" style="stroke:#038048;stroke-width:1.0;"/><text fill="#000000" font-family="sans-serif" font-size="14" lengthAdjust="spacing" textLength="168" x="1432" y="370.3948">BaseVertex(name:string)</text><ellipse cx="1423" cy="383.0921" fill="#84BE84" rx="3" ry="3" style="stroke:#038048;stroke-width:1.0;"/><text fill="#000000" font-family="sans-serif" font-size="14" lengthAdjust="spacing" textLength="244" x="1432" y="386.8831">BaseVertex(x:int, y:int, name:string)</text><ellipse cx="1423" cy="399.5804" fill="#84BE84" rx="3" ry="3" style="stroke:#038048;stroke-width:1.0;"/><text fill="#000000" font-family="sans-serif" font-size="14" lengthAdjust="spacing" textLength="186" x="1432" y="403.3714">&#171;virtual&#187; IsWalkable() : bool</text><ellipse cx="1423" cy="416.0687" fill="#84BE84" rx="3" ry="3" style="stroke:#038048;stroke-width:1.0;"/><text fill="#000000" font-family="sans-serif" font-size="14" lengthAdjust="spacing" textLength="224" x="1432" y="419.8597">&#171;virtual&#187; GetVertexType() : string</text><ellipse cx="1423" cy="432.557" fill="#84BE84" rx="3" ry="3" style="stroke:#038048;stroke-width:1.0;"/><text fill="#000000" font-family="sans-serif" font-size="14" lengthAdjust="spacing" textLength="196" x="1432" y="436.348">&#171;override&#187; ToString() : string</text></g><!--class BaseEdge--><g id="elem_BaseEdge"><rect codeLine="1" fill="#F1F1F1" height="146.9297" id="BaseEdge" rx="2.5" ry="2.5" style="stroke:#181818;stroke-width:0.5;" width="558" x="1268" y="7"/><ellipse cx="1510.25" cy="23" fill="#ADD1B2" rx="11" ry="11" style="stroke:#181818;stroke-width:1.0;"/><path d="M1512.7231,29.1431 Q1512.1421,29.4419 1511.5029,29.5913 Q1510.8638,29.7407 1510.1582,29.7407 Q1507.6514,29.7407 1506.3315,28.0889 Q1505.0117,26.437 1505.0117,23.3159 Q1505.0117,20.1865 1506.3315,18.5347 Q1507.6514,16.8828 1510.1582,16.8828 Q1510.8638,16.8828 1511.5112,17.0322 Q1512.1587,17.1816 1512.7231,17.4805 L1512.7231,20.2031 Q1512.0923,19.6221 1511.4988,19.3523 Q1510.9053,19.0825 1510.2744,19.0825 Q1508.9297,19.0825 1508.2449,20.1492 Q1507.5601,21.2158 1507.5601,23.3159 Q1507.5601,25.4077 1508.2449,26.4744 Q1508.9297,27.541 1510.2744,27.541 Q1510.9053,27.541 1511.4988,27.2712 Q1512.0923,27.0015 1512.7231,26.4204 Z " fill="#000000"/><text fill="#000000" font-family="sans-serif" font-size="14" lengthAdjust="spacing" textLength="65" x="1530.75" y="28.291">BaseEdge</text><line style="stroke:#181818;stroke-width:0.5;" x1="1269" x2="1825" y1="39" y2="39"/><ellipse cx="1279" cy="52.7441" fill="none" rx="3" ry="3" style="stroke:#038048;stroke-width:1.0;"/><text fill="#000000" font-family="sans-serif" font-size="14" lengthAdjust="spacing" textLength="169" x="1288" y="56.5352">Name : string &#171;get&#187; &#171;set&#187;</text><ellipse cx="1279" cy="69.2324" fill="none" rx="3" ry="3" style="stroke:#038048;stroke-width:1.0;"/><text fill="#000000" font-family="sans-serif" font-size="14" lengthAdjust="spacing" textLength="184" x="1288" y="73.0234">weight : double &#171;get&#187; &#171;set&#187;</text><ellipse cx="1279" cy="85.7207" fill="none" rx="3" ry="3" style="stroke:#038048;stroke-width:1.0;"/><text fill="#000000" font-family="sans-serif" font-size="14" lengthAdjust="spacing" textLength="173" x="1288" y="89.5117">IsActive : bool &#171;get&#187; &#171;set&#187;</text><ellipse cx="1279" cy="102.209" fill="none" rx="3" ry="3" style="stroke:#038048;stroke-width:1.0;"/><text fill="#000000" font-family="sans-serif" font-size="14" lengthAdjust="spacing" textLength="162" x="1288" y="106">IsPath : bool &#171;get&#187; &#171;set&#187;</text><line style="stroke:#181818;stroke-width:0.5;" x1="1269" x2="1825" y1="112.9531" y2="112.9531"/><ellipse cx="1279" cy="126.6973" fill="#84BE84" rx="3" ry="3" style="stroke:#038048;stroke-width:1.0;"/><text fill="#000000" font-family="sans-serif" font-size="14" lengthAdjust="spacing" textLength="532" x="1288" y="130.4883">BaseEdge(source:BaseVertex, target:BaseVertex?, name:string, weight:double)</text><ellipse cx="1279" cy="143.1855" fill="#84BE84" rx="3" ry="3" style="stroke:#038048;stroke-width:1.0;"/><text fill="#000000" font-family="sans-serif" font-size="14" lengthAdjust="spacing" textLength="196" x="1288" y="146.9766">&#171;override&#187; ToString() : string</text></g><!--class StartVertex--><g id="elem_StartVertex"><rect codeLine="1" fill="#F1F1F1" height="97.4648" id="StartVertex" rx="2.5" ry="2.5" style="stroke:#181818;stroke-width:0.5;" width="271" x="1411.5" y="519.79"/><ellipse cx="1504.25" cy="535.79" fill="#ADD1B2" rx="11" ry="11" style="stroke:#181818;stroke-width:1.0;"/><path d="M1506.7231,541.9331 Q1506.1421,542.2319 1505.5029,542.3813 Q1504.8638,542.5307 1504.1582,542.5307 Q1501.6514,542.5307 1500.3315,540.8789 Q1499.0117,539.227 1499.0117,536.1059 Q1499.0117,532.9765 1500.3315,531.3247 Q1501.6514,529.6728 1504.1582,529.6728 Q1504.8638,529.6728 1505.5112,529.8222 Q1506.1587,529.9716 1506.7231,530.2705 L1506.7231,532.9931 Q1506.0923,532.4121 1505.4988,532.1423 Q1504.9053,531.8725 1504.2744,531.8725 Q1502.9297,531.8725 1502.2449,532.9392 Q1501.5601,534.0058 1501.5601,536.1059 Q1501.5601,538.1977 1502.2449,539.2644 Q1502.9297,540.331 1504.2744,540.331 Q1504.9053,540.331 1505.4988,540.0612 Q1506.0923,539.7915 1506.7231,539.2104 Z " fill="#000000"/><text fill="#000000" font-family="sans-serif" font-size="14" lengthAdjust="spacing" textLength="77" x="1524.75" y="541.081">StartVertex</text><line style="stroke:#181818;stroke-width:0.5;" x1="1412.5" x2="1681.5" y1="551.79" y2="551.79"/><line style="stroke:#181818;stroke-width:0.5;" x1="1412.5" x2="1681.5" y1="559.79" y2="559.79"/><ellipse cx="1422.5" cy="573.5341" fill="#84BE84" rx="3" ry="3" style="stroke:#038048;stroke-width:1.0;"/><text fill="#000000" font-family="sans-serif" font-size="14" lengthAdjust="spacing" textLength="245" x="1431.5" y="577.3252">StartVertex(x:int, y:int, name:string)</text><ellipse cx="1422.5" cy="590.0224" fill="#84BE84" rx="3" ry="3" style="stroke:#038048;stroke-width:1.0;"/><text fill="#000000" font-family="sans-serif" font-size="14" lengthAdjust="spacing" textLength="200" x="1431.5" y="593.8134">&#171;override&#187; IsWalkable() : bool</text><ellipse cx="1422.5" cy="606.5107" fill="#84BE84" rx="3" ry="3" style="stroke:#038048;stroke-width:1.0;"/><text fill="#000000" font-family="sans-serif" font-size="14" lengthAdjust="spacing" textLength="238" x="1431.5" y="610.3017">&#171;override&#187; GetVertexType() : string</text></g><!--class CityVertex--><g id="elem_CityVertex"><rect codeLine="1" fill="#F1F1F1" height="113.9531" id="CityVertex" rx="2.5" ry="2.5" style="stroke:#181818;stroke-width:0.5;" width="265" x="1717.5" y="511.54"/><ellipse cx="1810.25" cy="527.54" fill="#ADD1B2" rx="11" ry="11" style="stroke:#181818;stroke-width:1.0;"/><path d="M1812.7231,533.6831 Q1812.1421,533.9819 1811.5029,534.1313 Q1810.8638,534.2807 1810.1582,534.2807 Q1807.6514,534.2807 1806.3315,532.6289 Q1805.0117,530.977 1805.0117,527.8559 Q1805.0117,524.7265 1806.3315,523.0747 Q1807.6514,521.4228 1810.1582,521.4228 Q1810.8638,521.4228 1811.5112,521.5722 Q1812.1587,521.7216 1812.7231,522.0205 L1812.7231,524.7431 Q1812.0923,524.1621 1811.4988,523.8923 Q1810.9053,523.6225 1810.2744,523.6225 Q1808.9297,523.6225 1808.2449,524.6892 Q1807.5601,525.7558 1807.5601,527.8559 Q1807.5601,529.9477 1808.2449,531.0144 Q1808.9297,532.081 1810.2744,532.081 Q1810.9053,532.081 1811.4988,531.8112 Q1812.0923,531.5415 1812.7231,530.9604 Z " fill="#000000"/><text fill="#000000" font-family="sans-serif" font-size="14" lengthAdjust="spacing" textLength="71" x="1830.75" y="532.831">CityVertex</text><line style="stroke:#181818;stroke-width:0.5;" x1="1718.5" x2="1981.5" y1="543.54" y2="543.54"/><line style="stroke:#181818;stroke-width:0.5;" x1="1718.5" x2="1981.5" y1="551.54" y2="551.54"/><ellipse cx="1728.5" cy="565.2841" fill="#84BE84" rx="3" ry="3" style="stroke:#038048;stroke-width:1.0;"/><text fill="#000000" font-family="sans-serif" font-size="14" lengthAdjust="spacing" textLength="163" x="1737.5" y="569.0752">CityVertex(name:string)</text><ellipse cx="1728.5" cy="581.7724" fill="#84BE84" rx="3" ry="3" style="stroke:#038048;stroke-width:1.0;"/><text fill="#000000" font-family="sans-serif" font-size="14" lengthAdjust="spacing" textLength="239" x="1737.5" y="585.5634">CityVertex(x:int, y:int, name:string)</text><ellipse cx="1728.5" cy="598.2607" fill="#84BE84" rx="3" ry="3" style="stroke:#038048;stroke-width:1.0;"/><text fill="#000000" font-family="sans-serif" font-size="14" lengthAdjust="spacing" textLength="200" x="1737.5" y="602.0517">&#171;override&#187; IsWalkable() : bool</text><ellipse cx="1728.5" cy="614.749" fill="#84BE84" rx="3" ry="3" style="stroke:#038048;stroke-width:1.0;"/><text fill="#000000" font-family="sans-serif" font-size="14" lengthAdjust="spacing" textLength="238" x="1737.5" y="618.54">&#171;override&#187; GetVertexType() : string</text></g><!--reverse link Control to GraphCanvas--><g id="link_Control_GraphCanvas"><path codeLine="16" d="M193,122.62 C193,160.44 193,218.52 193,271.22 " fill="none" id="Control-backto-GraphCanvas" style="stroke:#181818;stroke-width:1.0;"/><polygon fill="none" points="193,104.62,187,122.62,199,122.62,193,104.62" style="stroke:#181818;stroke-width:1.0;"/></g><!--link GraphCanvas to List`1--><g id="link_GraphCanvas_List`1"><path codeLine="17" d="M390.9945,360.9968 C402.6145,357.8968 397.1424,359.2934 408.7624,354.2134 " fill="none" id="GraphCanvas-List`1" style="stroke:#181818;stroke-width:1.0;"/><polygon fill="none" points="379.4,364.09,386.2283,366.4082,390.9945,360.9968,384.1662,358.6786,379.4,364.09" style="stroke:#181818;stroke-width:1.0;"/><polygon fill="#181818" points="414.26,351.81,404.4113,351.7501,409.6787,353.8129,407.6159,359.0802,414.26,351.81" style="stroke:#181818;stroke-width:1.0;"/><text fill="#000000" font-family="sans-serif" font-size="13" lengthAdjust="spacing" textLength="138" x="387.1951" y="373.0384">Vertices&lt;BaseVertex&gt;</text></g><!--link GraphCanvas to List`1--><g id="link_GraphCanvas_List`1"><path codeLine="18" d="M390.9945,296.2332 C402.6145,299.3332 397.1441,297.9226 408.7641,303.0126 " fill="none" id="GraphCanvas-List`1-1" style="stroke:#181818;stroke-width:1.0;"/><polygon fill="none" points="379.4,293.14,384.1662,298.5514,390.9945,296.2332,386.2283,290.8218,379.4,293.14" style="stroke:#181818;stroke-width:1.0;"/><polygon fill="#181818" points="414.26,305.42,407.6211,298.145,409.6801,303.4138,404.4113,305.4728,414.26,305.42" style="stroke:#181818;stroke-width:1.0;"/><text fill="#000000" font-family="sans-serif" font-size="13" lengthAdjust="spacing" textLength="115" x="411.6638" y="291.7347">Edges&lt;BaseEdge&gt;</text></g><!--reverse link GraphCanvas to GraphLayout--><g id="link_GraphCanvas_GraphLayout"><path codeLine="19" d="M193,401.99 C193,437.17 193,466.55 193,503.14 " fill="none" id="GraphCanvas-backto-GraphLayout" style="stroke:#181818;stroke-width:1.0;"/><ellipse cx="193" cy="393.99" fill="#FFFFFF" rx="8" ry="8" style="stroke:#181818;stroke-width:1.0;"/><line style="stroke:#181818;stroke-width:1.0;" x1="193" x2="193" y1="401.99" y2="385.99"/><line style="stroke:#181818;stroke-width:1.0;" x1="185" x2="201" y1="393.99" y2="393.99"/></g><!--reverse link Window to MainWindow--><g id="link_Window_MainWindow"><path codeLine="4" d="M596,122.62 C596,165.7 596,240.45 596,291.71 " fill="none" id="Window-backto-MainWindow" style="stroke:#181818;stroke-width:1.0;"/><polygon fill="none" points="596,104.62,590,122.62,602,122.62,596,104.62" style="stroke:#181818;stroke-width:1.0;"/></g><!--reverse link Application to App--><g id="link_Application_App"><path codeLine="5" d="M897,122.62 C897,163.55 897,231.3 897,283.72 " fill="none" id="Application-backto-App" style="stroke:#181818;stroke-width:1.0;"/><polygon fill="none" points="897,104.62,891,122.62,903,122.62,897,104.62" style="stroke:#181818;stroke-width:1.0;"/></g><!--reverse link BaseVertex to WallVertex--><g id="link_BaseVertex_WallVertex"><path codeLine="6" d="M1397.7148,446.4434 C1360.1348,475.8534 1335.33,495.26 1304.3,519.54 " fill="none" id="BaseVertex-backto-WallVertex" style="stroke:#181818;stroke-width:1.0;"/><polygon fill="none" points="1411.89,435.35,1394.017,441.7184,1401.4126,451.1685,1411.89,435.35" style="stroke:#181818;stroke-width:1.0;"/></g><!--link BaseEdge to BaseVertex--><g id="link_BaseEdge_BaseVertex"><path codeLine="9" d="M1534.9,154.32 C1534.09,173.03 1533.7156,187.6102 1533.8656,207.8602 " fill="none" id="BaseEdge-to-BaseVertex" style="stroke:#181818;stroke-width:1.0;"/><polygon fill="#181818" points="1533.91,213.86,1537.8432,204.8306,1533.873,208.8601,1529.8434,204.8899,1533.91,213.86" style="stroke:#181818;stroke-width:1.0;"/><text fill="#000000" font-family="sans-serif" font-size="13" lengthAdjust="spacing" textLength="42" x="1489.6196" y="203.2247">source</text></g><!--link BaseEdge to BaseVertex--><g id="link_BaseEdge_BaseVertex"><path codeLine="10" d="M1559.1,154.32 C1559.91,173.03 1560.2844,187.6102 1560.1344,207.8602 " fill="none" id="BaseEdge-to-BaseVertex-1" style="stroke:#181818;stroke-width:1.0;"/><polygon fill="#181818" points="1560.09,213.86,1564.1566,204.8899,1560.127,208.8601,1556.1568,204.8306,1560.09,213.86" style="stroke:#181818;stroke-width:1.0;"/><text fill="#000000" font-family="sans-serif" font-size="13" lengthAdjust="spacing" textLength="37" x="1562.2125" y="203.2247">target</text></g><!--reverse link BaseVertex to StartVertex--><g id="link_BaseVertex_StartVertex"><path codeLine="6" d="M1547,461.69 C1547,488.4 1547,497.44 1547,519.41 " fill="none" id="BaseVertex-backto-StartVertex" style="stroke:#181818;stroke-width:1.0;"/><polygon fill="none" points="1547,443.69,1541,461.69,1553,461.69,1547,443.69" style="stroke:#181818;stroke-width:1.0;"/></g><!--reverse link BaseVertex to CityVertex--><g id="link_BaseVertex_CityVertex"><path codeLine="7" d="M1696.2655,446.8085 C1729.4055,472.8385 1749.45,488.57 1778.26,511.19 " fill="none" id="BaseVertex-backto-CityVertex" style="stroke:#181818;stroke-width:1.0;"/><polygon fill="none" points="1682.11,435.69,1692.5593,451.527,1699.9717,442.09,1682.11,435.69" style="stroke:#181818;stroke-width:1.0;"/></g><!--SRC=[KypCIyufJKbLqDDtBqeio0ZBB2vDpCciIYs2y9qJyyeIY_KAIdDpk1Hng_LDpCmBpynBoI_NIwn8pCqXgC6ne818bG55-Ub5YRaOwi9IYqfIA_J34tDo84nSAl3BkgQaf-AI2ov9B2h1hzqviwGIIGK0]--></g></svg>